<?xml version="1.0" encoding="UTF-8"?>
<svg version="1.1" xmlns="http://www.w3.org/2000/svg" width="32" height="32">
<path d="M0 0 C4.8846525 2.26787438 7.73212562 5.1153475 10 10 C10.75381535 15.5997712 10.77303575 20.33499991 8.375 25.5 C3.80134327 30.3143755 0.6912538 32.25156236 -6 32.5 C-12.6912538 32.25156236 -15.80134327 30.3143755 -20.375 25.5 C-22.77303575 20.33499991 -22.75381535 15.5997712 -22 10 C-17.52212837 0.3553534 -9.85292056 -1.32635469 0 0 Z " fill="#F26311" transform="translate(22,0)"/>
<path d="M0 0 C0.33 0 0.66 0 1 0 C1.20625 1.0725 1.4125 2.145 1.625 3.25 C3.26729586 7.72898872 4.910065 8.73748276 9 11 C10 12 10 12 10.125 15.5 C10 19 10 19 9 20 C4.59988087 20.51766107 2.47556256 20.28181485 -1.375 18 C-4.18604288 14.78737957 -4.99829263 13.15317168 -5.25 9 C-4.78411809 5.27294476 -2.59454827 2.59454827 0 0 Z " fill="#FDEDE3" transform="translate(10,6)"/>
<path d="M0 0 C3.75 0.375 3.75 0.375 6.625 2.4375 C9.14465123 5.92054729 9.67225715 8.09914311 9.75 12.375 C8.8125 14.8125 8.8125 14.8125 7.75 16.375 C7.5025 15.77042969 7.255 15.16585938 7 14.54296875 C5.54195246 12.01416755 4.25217655 11.14556979 1.75 9.6875 C1.04875 9.27113281 0.3475 8.85476563 -0.375 8.42578125 C-1.64985773 7.71132973 -2.94288005 7.02855997 -4.25 6.375 C-4.292721 4.70888095 -4.29063832 3.04117115 -4.25 1.375 C-3.25 0.375 -3.25 0.375 0 0 Z " fill="#FDEFE6" transform="translate(17.25,5.625)"/>
<path d="M0 0 C0.7425 0.61875 1.485 1.2375 2.25 1.875 C4.78678881 4.02562108 4.78678881 4.02562108 7.25 4.9375 C9 6 9 6 9.75 8.625 C9.87375 9.800625 9.87375 9.800625 10 11 C7.8125 11.8125 7.8125 11.8125 5 12 C2.1875 10 2.1875 10 0 7 C-0.3125 3.1875 -0.3125 3.1875 0 0 Z " fill="#F26615" transform="translate(8,12)"/>
<path d="M0 0 C0.33 0 0.66 0 1 0 C1 1.65 1 3.3 1 5 C0.34 5 -0.32 5 -1 5 C-1 7.97 -1 10.94 -1 14 C-1.99 14.33 -2.98 14.66 -4 15 C-5.475 7.87083333 -5.475 7.87083333 -3.125 3.5625 C-1 1 -1 1 0 0 Z " fill="#FCE1D1" transform="translate(10,6)"/>
<path d="M0 0 C3.375 0.3125 3.375 0.3125 7 1 C7.66 1.99 8.32 2.98 9 4 C8.67 4.99 8.34 5.98 8 7 C6.66144944 6.21718695 5.32926356 5.42348123 4 4.625 C3.2575 4.18414063 2.515 3.74328125 1.75 3.2890625 C1.1725 2.86367187 0.595 2.43828125 0 2 C0 1.34 0 0.68 0 0 Z " fill="#F37126" transform="translate(15,8)"/>
<path d="M0 0 C0.53625 0.28875 1.0725 0.5775 1.625 0.875 C4.35280484 2.16711808 7.12612718 3.08558592 10 4 C10 4.66 10 5.32 10 6 C3.52443609 5.38909774 3.52443609 5.38909774 1.0625 3.5625 C0 2 0 2 0 0 Z " fill="#FEF9F6" transform="translate(7,20)"/>
<path d="M0 0 C2.31 0 4.62 0 7 0 C7 0.66 7 1.32 7 2 C5.02 2 3.04 2 1 2 C1 2.66 1 3.32 1 4 C0.34 4 -0.32 4 -1 4 C-0.67 2.68 -0.34 1.36 0 0 Z " fill="#FEF8F5" transform="translate(14,6)"/>
</svg>
