<?xml version="1.0" encoding="utf-8"?>
<!-- Generator: Adobe Illustrator 28.1.0, SVG Export Plug-In . SVG Version: 6.00 Build 0)  -->
<svg version="1.1" id="Layer_1" xmlns="http://www.w3.org/2000/svg" xmlns:xlink="http://www.w3.org/1999/xlink" x="0px" y="0px"
	 viewBox="0 0 2108.2 354.3" style="enable-background:new 0 0 2108.2 354.3;" xml:space="preserve">
<style type="text/css">
	.st0{fill:#F2600C;}
	.st1{fill-rule:evenodd;clip-rule:evenodd;fill:#FFFFFF;}
	.st2{fill:#1C2230;}
</style>
<g>
	<g>
		<path class="st0" d="M168.6,159.5C94.2,132.6,75.4,76.1,89.3,35c1.8-5.6,4.4-11.4,7.7-17.4c1-1.8,0.7-4.2-0.8-5.7
			s-3.8-1.8-5.5-0.7C34.8,44.4,0,105.9,0,171.5c0,37.9,11.2,74.3,32.4,105.4c19.6,28.8,48.2,51.6,82.9,65.9
			c18.6,7.7,36.6,11.5,54.8,11.5c4.7,0,9.3-0.2,14-0.8c49.2-5.3,74.1-34.2,74.1-85.9C258.1,230.9,224.7,180.2,168.6,159.5
			 M223.6,267.9c0,34-11.3,47.3-43.3,50.7c-26.5,2.8-48.8-3.7-82.1-24.3c-4.7-2.8-8.6-5.7-12-8.6c-32.9-28.6-51.8-70.2-51.8-114.1
			c0-27.3,7.1-53.6,20.8-76.8c12.9,43.2,50.2,79.4,101.8,98C196.9,207.5,223.6,243.5,223.6,267.9"/>
		<path class="st0" d="M358,115.1c-5.7-18.2-14.1-35.5-25.1-51c-10.9-15.6-27-30.7-43.1-40.5c-15.2-9.3-26.7-15.1-44.1-18.9
			C231.5,1.5,216.8,0,201.9,0c-53.7,0-77.7,29.5-77.7,58.7c0,37.5,27.2,54.4,88,78.4C289.9,166.7,323,205.2,323,266
			c0,4.4-0.2,8.8-0.6,13.1c-0.2,2.1,1,4.1,3,4.9c0.5,0.2,1.1,0.3,1.7,0.3c1.4,0,2.8-0.7,3.7-1.9c23.6-32.2,36.1-70.5,36.1-110.7
			C366.7,152.5,363.7,133.4,358,115.1 M332.2,171.8c0,1.4-0.9,2-1.5,2.1c-0.4,0.2-1.8,0.5-2.8-0.8c-21.7-28.1-55.6-50.8-103.8-69.1
			c-56.4-22.2-65.5-31.6-65.5-45.3c0-14.7,16.1-23.4,43.1-23.4c12.4,0,24.6,1.3,36.5,3.9c8.7,2,14.9,4.3,23,8.5
			c22.2,11.9,40.2,29.3,51.9,50.5c12.4,22.4,18.9,47.8,18.9,73.4L332.2,171.8L332.2,171.8z"/>
	</g>
	<g>
		<polygon class="st1" points="2065.7,272.8 1955.6,272.8 1955.6,80.5 2005.6,80.5 2005.6,230.9 2065.7,230.9 		"/>
		<polygon class="st1" points="1929.9,272.8 1819.8,272.8 1819.8,80.5 1869.8,80.5 1869.8,230.9 1929.9,230.9 		"/>
		<path class="st1" d="M1728.7,80.5h-54.6l-74,192.2h52.8l13.3-33.5h69.1l12.4,33.5h53.4L1728.7,80.5L1728.7,80.5z M1680,201.2
			l21-61.3l20.7,61.3H1680z"/>
		<path class="st1" d="M1585.8,189c-5.6-9.1-16.2-15.3-31.6-18.5c6.9-4,11.9-8.9,15.2-14.6c4-6.8,5.9-15.2,5.9-25.2
			c0-33.4-18.1-50.1-54.2-50.1h-74.4v192.2h80.2c24.2,0,42.3-6.5,54.1-19.6c8.2-9,12.3-20.7,12.3-35.1
			C1593.4,207,1590.8,197.3,1585.8,189 M1496.7,118.5h9.2c3.8-0.1,7.6,0.4,11.3,1.4c7.9,2.8,11.8,8.6,11.8,17.3
			c0.1,4.6-1.5,9.1-4.5,12.6c-3.8,4.2-10,6.3-18.6,6.3h-9.2L1496.7,118.5L1496.7,118.5z M1534.7,230.2c-5,3-13.9,4.5-26.7,4.5h-11.2
			v-40.5h10.3c9,0,15.3,0.3,18.9,0.8c11.6,2,17.4,8.5,17.4,19.7C1543.3,221.7,1540.5,226.9,1534.7,230.2"/>
		<polygon class="st1" points="1415,272.8 1305.4,272.8 1305.4,80.5 1415,80.5 1415,122.3 1355.5,122.3 1355.5,154.9 1411.8,154.9
			1411.8,196.7 1355.5,196.7 1355.5,230.9 1415,230.9 		"/>
		<polygon class="st1" points="1286.8,272.8 1221.9,272.8 1156.9,189.4 1156.9,272.8 1106.9,272.8 1106.9,80.5 1156.9,80.5
			1156.9,159.8 1218,80.5 1279.8,80.5 1203.3,171.5 		"/>
		<path class="st1" d="M1059.6,108.4c-19.8-22.4-46.7-33.6-80.5-33.6s-60.7,11.2-80.5,33.6c-8.2,9.5-14.6,20.4-18.9,32.2
			c-4.6,11.7-7,24.1-7.1,36.7c0,26.1,8.7,49,26.1,68.7c19.8,22.4,46.6,33.6,80.4,33.6s60.6-11.2,80.5-33.6
			c17.4-19.7,26.1-42.6,26.1-68.7C1085.7,151.2,1077,128.2,1059.6,108.4 M1020.6,212.2c-10.8,12.6-24.7,18.9-41.6,18.9
			s-30.7-6.4-41.5-19c-8.7-10.2-13-21.8-13-34.8c0-6.4,1.2-12.7,3.4-18.6c3.7-10.4,10.7-19.4,19.9-25.7c9.1-6.4,20-9.8,31.2-9.7
			c16.6,0,30.5,6.3,41.6,18.9c8.7,9.9,13,21.6,13,35.1C1033.8,190.1,1029.1,202.6,1020.6,212.2"/>
		<polygon class="st1" points="863.5,272.8 813.4,272.8 799.2,162.1 752.6,272.8 732.7,272.8 688.3,162.1 672,272.8 622.2,272.8
			654.9,80.5 704.3,80.5 743.3,183 784.6,80.5 834.4,80.5 		"/>
		<path class="st1" d="M606.2,209.1c0,32.5-14.3,53.6-42.9,63.5c-10.3,3.5-21.2,5.3-32.2,5.2c-24.1,0-46.4-7.3-67-21.8l21.5-40.3
			c15,13.5,29.8,20.3,44.1,20.3c6.5,0,12-1.5,16.5-4.5c5-3,8.1-8.5,7.9-14.4c0-5.6-2.9-10.3-8.7-14.1c-4.3-2.8-11.6-5.7-21.9-8.6
			c-12.4-3.7-20.2-6.2-23.4-7.6c-4.7-1.9-9-4.5-13-7.6c-10.2-8.4-15.4-21.2-15.4-38.3c0-17.8,5.3-32.6,15.9-44.4
			c12.4-13.8,29-20.7,49.6-20.7s41.1,5.2,61.1,15.6l-20,38.9c-10.9-8.4-21.9-12.6-33-12.6c-5.1-0.1-10.1,1.3-14.4,4.1
			c-4.8,3.1-7.2,7.2-7.2,12.4c0,5.2,3.2,9.5,9.4,13.1c2.8,1.7,11.3,4.6,25.4,8.7c17.7,5.2,30.3,12.5,37.8,22
			C603,186.1,606.2,196.5,606.2,209.1"/>
		<path class="st2" d="M2099.3,255.8c-0.4-1.9-1.2-2.9-2.6-3.5h-0.1v-0.4h0.1c1.8-0.5,2.9-1.8,2.9-3.2c0-1.3-0.5-2.4-1.4-3.1
			c-1.1-0.6-2.3-1-5-1c-2.1,0-4,0.1-5.5,0.4v14.4h3.1v-5.9h1.8c1.9,0,2.9,0.8,3.2,2.4c0.1,0.3,0.2,0.6,0.2,0.9
			c0.3,1.2,0.5,2.1,0.9,2.5h3.3C2100,258.7,2099.7,257.7,2099.3,255.8L2099.3,255.8z M2092.8,251.3h-1.8v-4.5h0.1
			c0.3-0.1,0.9-0.2,1.9-0.2c2.1,0,3.3,0.9,3.3,2.4S2095,251.3,2092.8,251.3L2092.8,251.3z M2099.3,255.8c-0.4-1.9-1.2-2.9-2.6-3.5
			h-0.1v-0.4h0.1c1.8-0.5,2.9-1.8,2.9-3.2c0-1.3-0.5-2.4-1.4-3.1c-1.1-0.6-2.3-1-5-1c-2.1,0-4,0.1-5.5,0.4v14.4h3.1v-5.9h1.8
			c1.9,0,2.9,0.8,3.2,2.4c0.1,0.3,0.2,0.6,0.2,0.9c0.3,1.2,0.5,2.1,0.9,2.5h3.3C2100,258.7,2099.7,257.7,2099.3,255.8L2099.3,255.8z
			 M2092.8,251.3h-1.8v-4.5h0.1c0.3-0.1,0.9-0.2,1.9-0.2c2.1,0,3.3,0.9,3.3,2.4S2095,251.3,2092.8,251.3L2092.8,251.3z
			 M2099.3,255.8c-0.4-1.9-1.2-2.9-2.6-3.5h-0.1v-0.4h0.1c1.8-0.5,2.9-1.8,2.9-3.2c0-1.3-0.5-2.4-1.4-3.1c-1.1-0.6-2.3-1-5-1
			c-2.1,0-4,0.1-5.5,0.4v14.4h3.1v-5.9h1.8c1.9,0,2.9,0.8,3.2,2.4c0.1,0.3,0.2,0.6,0.2,0.9c0.3,1.2,0.5,2.1,0.9,2.5h3.3
			C2100,258.7,2099.7,257.7,2099.3,255.8L2099.3,255.8z M2092.8,251.3h-1.8v-4.5h0.1c0.3-0.1,0.9-0.2,1.9-0.2c2.1,0,3.3,0.9,3.3,2.4
			S2095,251.3,2092.8,251.3L2092.8,251.3z M2099.3,255.8c-0.4-1.9-1.2-2.9-2.6-3.5h-0.1v-0.4h0.1c1.8-0.5,2.9-1.8,2.9-3.2
			c0-1.3-0.5-2.4-1.4-3.1c-1.1-0.6-2.3-1-5-1c-2.1,0-4,0.1-5.5,0.4v14.4h3.1v-5.9h1.8c1.9,0,2.9,0.8,3.2,2.4
			c0.1,0.3,0.2,0.6,0.2,0.9c0.3,1.2,0.5,2.1,0.9,2.5h3.3C2100,258.7,2099.7,257.7,2099.3,255.8L2099.3,255.8z M2092.8,251.3h-1.8
			v-4.5h0.1c0.3-0.1,0.9-0.2,1.9-0.2c2.1,0,3.3,0.9,3.3,2.4S2095,251.3,2092.8,251.3L2092.8,251.3z M2093.4,237.3
			c-8.2,0-14.9,6.5-14.9,14.5s6.6,14.6,14.9,14.6s14.8-6.4,14.8-14.6S2101.7,237.3,2093.4,237.3z M2093.5,263.6
			c-6.6,0-11.6-5.1-11.6-11.8s5-11.8,11.5-11.8s11.4,5.1,11.4,11.9S2099.8,263.6,2093.5,263.6L2093.5,263.6z M2096.8,252.3
			L2096.8,252.3l-0.1-0.4h0.1c1.8-0.5,2.9-1.8,2.9-3.2c0-1.3-0.5-2.4-1.4-3.1c-1.1-0.6-2.3-1-5-1c-2.1,0-4,0.1-5.5,0.4v14.4h3.1
			v-5.9h1.8c1.9,0,2.9,0.8,3.2,2.4c0.1,0.3,0.2,0.6,0.2,0.9c0.3,1.2,0.5,2.1,0.9,2.5h3.3c-0.3-0.6-0.6-1.5-1-3.5
			C2098.9,253.9,2098.1,252.9,2096.8,252.3L2096.8,252.3z M2092.8,251.3h-1.8v-4.5h0.1c0.3-0.1,0.9-0.2,1.9-0.2
			c2.1,0,3.3,0.9,3.3,2.4S2095,251.3,2092.8,251.3L2092.8,251.3z M2099.4,255.8c-0.4-1.9-1.2-2.9-2.6-3.5h-0.1v-0.4h0.1
			c1.8-0.5,2.9-1.8,2.9-3.2c0-1.3-0.5-2.4-1.4-3.1c-1.1-0.6-2.3-1-5-1c-2.1,0-4,0.1-5.5,0.4v14.4h3.1v-5.9h1.8
			c1.9,0,2.9,0.8,3.2,2.4c0.1,0.3,0.2,0.6,0.2,0.9c0.3,1.2,0.5,2.1,0.9,2.5h3.3C2100,258.7,2099.7,257.7,2099.4,255.8L2099.4,255.8z
			 M2092.8,251.3h-1.8v-4.5h0.1c0.3-0.1,0.9-0.2,1.9-0.2c2.1,0,3.3,0.9,3.3,2.4S2095,251.3,2092.8,251.3L2092.8,251.3z
			 M2099.4,255.8c-0.4-1.9-1.2-2.9-2.6-3.5h-0.1v-0.4h0.1c1.8-0.5,2.9-1.8,2.9-3.2c0-1.3-0.5-2.4-1.4-3.1c-1.1-0.6-2.3-1-5-1
			c-2.1,0-4,0.1-5.5,0.4v14.4h3.1v-5.9h1.8c1.9,0,2.9,0.8,3.2,2.4c0.1,0.3,0.2,0.6,0.2,0.9c0.3,1.2,0.5,2.1,0.9,2.5h3.3
			C2100,258.7,2099.7,257.7,2099.4,255.8L2099.4,255.8z M2092.8,251.3h-1.8v-4.5h0.1c0.3-0.1,0.9-0.2,1.9-0.2c2.1,0,3.3,0.9,3.3,2.4
			S2095,251.3,2092.8,251.3L2092.8,251.3z M2099.4,255.8c-0.4-1.9-1.2-2.9-2.6-3.5h-0.1v-0.4h0.1c1.8-0.5,2.9-1.8,2.9-3.2
			c0-1.3-0.5-2.4-1.4-3.1c-1.1-0.6-2.3-1-5-1c-2.1,0-4,0.1-5.5,0.4v14.4h3.1v-5.9h1.8c1.9,0,2.9,0.8,3.2,2.4
			c0.1,0.3,0.2,0.6,0.2,0.9c0.3,1.2,0.5,2.1,0.9,2.5h3.3C2100,258.7,2099.7,257.7,2099.4,255.8L2099.4,255.8z M2092.8,251.3h-1.8
			v-4.5h0.1c0.3-0.1,0.9-0.2,1.9-0.2c2.1,0,3.3,0.9,3.3,2.4S2095,251.3,2092.8,251.3L2092.8,251.3z M2099.4,255.8
			c-0.4-1.9-1.2-2.9-2.6-3.5h-0.1v-0.4h0.1c1.8-0.5,2.9-1.8,2.9-3.2c0-1.3-0.5-2.4-1.4-3.1c-1.1-0.6-2.3-1-5-1c-2.1,0-4,0.1-5.5,0.4
			v14.4h3.1v-5.9h1.8c1.9,0,2.9,0.8,3.2,2.4c0.1,0.3,0.2,0.6,0.2,0.9c0.3,1.2,0.5,2.1,0.9,2.5h3.3
			C2100,258.7,2099.7,257.7,2099.4,255.8L2099.4,255.8z M2092.8,251.3h-1.8v-4.5h0.1c0.3-0.1,0.9-0.2,1.9-0.2c2.1,0,3.3,0.9,3.3,2.4
			S2095,251.3,2092.8,251.3L2092.8,251.3z"/>
	</g>
</g>
</svg>
